<svg xmlns="http://www.w3.org/2000/svg" xmlns:xlink="http://www.w3.org/1999/xlink" style="margin: auto; background: rgb(255, 255, 255); display: block; shape-rendering: auto;" preserveAspectRatio="xMidYMid" viewBox="35.44 35.5 29.13 29">
<g transform="rotate(0 50 50)">
  <rect x="47.5" y="35.5" rx="2.05" ry="2.05" width="5" height="5" fill="#686868">
    <animate attributeName="opacity" values="1;0" keyTimes="0;1" dur="1.2195121951219512s" begin="-1.097560975609756s" repeatCount="indefinite"/>
  </rect>
</g><g transform="rotate(36 50 50)">
  <rect x="47.5" y="35.5" rx="2.05" ry="2.05" width="5" height="5" fill="#686868">
    <animate attributeName="opacity" values="1;0" keyTimes="0;1" dur="1.2195121951219512s" begin="-0.9756097560975608s" repeatCount="indefinite"/>
  </rect>
</g><g transform="rotate(72 50 50)">
  <rect x="47.5" y="35.5" rx="2.05" ry="2.05" width="5" height="5" fill="#686868">
    <animate attributeName="opacity" values="1;0" keyTimes="0;1" dur="1.2195121951219512s" begin="-0.8536585365853657s" repeatCount="indefinite"/>
  </rect>
</g><g transform="rotate(108 50 50)">
  <rect x="47.5" y="35.5" rx="2.05" ry="2.05" width="5" height="5" fill="#686868">
    <animate attributeName="opacity" values="1;0" keyTimes="0;1" dur="1.2195121951219512s" begin="-0.7317073170731706s" repeatCount="indefinite"/>
  </rect>
</g><g transform="rotate(144 50 50)">
  <rect x="47.5" y="35.5" rx="2.05" ry="2.05" width="5" height="5" fill="#686868">
    <animate attributeName="opacity" values="1;0" keyTimes="0;1" dur="1.2195121951219512s" begin="-0.6097560975609755s" repeatCount="indefinite"/>
  </rect>
</g><g transform="rotate(180 50 50)">
  <rect x="47.5" y="35.5" rx="2.05" ry="2.05" width="5" height="5" fill="#686868">
    <animate attributeName="opacity" values="1;0" keyTimes="0;1" dur="1.2195121951219512s" begin="-0.4878048780487804s" repeatCount="indefinite"/>
  </rect>
</g><g transform="rotate(216 50 50)">
  <rect x="47.5" y="35.5" rx="2.05" ry="2.05" width="5" height="5" fill="#686868">
    <animate attributeName="opacity" values="1;0" keyTimes="0;1" dur="1.2195121951219512s" begin="-0.3658536585365853s" repeatCount="indefinite"/>
  </rect>
</g><g transform="rotate(252 50 50)">
  <rect x="47.5" y="35.5" rx="2.05" ry="2.05" width="5" height="5" fill="#686868">
    <animate attributeName="opacity" values="1;0" keyTimes="0;1" dur="1.2195121951219512s" begin="-0.2439024390243902s" repeatCount="indefinite"/>
  </rect>
</g><g transform="rotate(288 50 50)">
  <rect x="47.5" y="35.5" rx="2.05" ry="2.05" width="5" height="5" fill="#686868">
    <animate attributeName="opacity" values="1;0" keyTimes="0;1" dur="1.2195121951219512s" begin="-0.1219512195121951s" repeatCount="indefinite"/>
  </rect>
</g><g transform="rotate(324 50 50)">
  <rect x="47.5" y="35.5" rx="2.05" ry="2.05" width="5" height="5" fill="#686868">
    <animate attributeName="opacity" values="1;0" keyTimes="0;1" dur="1.2195121951219512s" begin="0s" repeatCount="indefinite"/>
  </rect>
</g>
<!-- [ldio] generated by https://loading.io/ --></svg>